<?xml version="1.0" encoding="iso-8859-1"?>
<!-- Uploaded to: SVG Repo, www.svgrepo.com, Generator: SVG Repo Mixer Tools -->
<svg version="1.1" id="Layer_1" xmlns="http://www.w3.org/2000/svg" xmlns:xlink="http://www.w3.org/1999/xlink" 
	 viewBox="0 0 489.6 489.6" xml:space="preserve">
<g>
	<g id="XMLID_211_">
		<rect y="273.608" style="fill:#683C11;" width="489.6" height="24.797"/>
	</g>
	<g id="XMLID_213_">
		<rect y="298.492" style="fill:#7D4E24;" width="489.6" height="30.514"/>
	</g>
	<g id="XMLID_214_">
		<rect y="329.182" style="fill:#936037;" width="489.6" height="38.073"/>
	</g>
	<g id="XMLID_216_">
		<rect y="368.353" style="fill:#B17F4A;" width="489.6" height="44.802"/>
	</g>
	<g id="XMLID_217_">
		<rect y="413.241" style="fill:#CA9E67;" width="489.6" height="68.764"/>
	</g>
	<g id="XMLID_203_">
		<rect y="0.055" style="fill:#009FE3;" width="489.6" height="274.983"/>
	</g>
	<g id="XMLID_291_">
		<rect y="229.555" style="fill:#33B2E9;" width="489.6" height="45.9"/>
	</g>
	<g id="XMLID_287_">
		<rect y="252.505" style="fill:#66C5EE;" width="489.6" height="22.533"/>
	</g>
	<g id="XMLID_219_">
		<rect x="61.2" y="214.255" style="fill:#95C11F;" width="99.45" height="61.2"/>
	</g>
	<g id="XMLID_285_">
		<polygon style="fill:#95C11F;" points="206.55,275.455 160.65,275.455 160.65,214.255 183.6,191.305 206.55,214.255 		"/>
	</g>
	<g id="XMLID_284_">
		<polygon style="fill:#F39200;" points="160.65,214.255 68.85,214.255 84.15,191.305 175.95,191.305 		"/>
	</g>
	<g id="XMLID_205_">
		<rect y="290.78" style="fill:#1D1D1B;" width="489.599" height="15.3"/>
	</g>
	<g id="XMLID_206_">
		<rect y="321.456" style="fill:#1D1D1B;" width="489.599" height="15.3"/>
	</g>
	<g id="XMLID_207_">
		<rect y="359.396" style="fill:#1D1D1B;" width="489.599" height="15.3"/>
	</g>
	<g id="XMLID_208_">
		<rect y="405.063" style="fill:#1D1D1B;" width="489.599" height="15.3"/>
	</g>
	<g id="XMLID_209_">
		<rect y="474.246" style="fill:#1D1D1B;" width="489.599" height="15.3"/>
	</g>
	<g id="XMLID_221_">
		
			<rect x="131.499" y="76.549" transform="matrix(-0.9487 -0.3162 0.3162 -0.9487 465.3368 243.9043)" style="fill:#FFFFFF;" width="241.916" height="15.3"/>
	</g>
	<path style="fill:#1D1D1B;" d="M214.201,267.805v-56.719l-27.431-27.431h-18.469v-15.3H153v15.3H80.981L53.55,211.086v56.719H0
		v15.3h489.599v-15.3L214.201,267.805L214.201,267.805z M198.9,267.805h-30.599v-50.382l15.3-15.3l15.3,15.3v50.382H198.9z
		 M87.319,198.955h77.812l-7.65,7.65H79.669L87.319,198.955z M68.85,221.905H153v45.9H68.85V221.905z"/>
	<g id="XMLID_288_">
		<rect x="84.15" y="237.205" style="fill:#1D1D1B;" width="15.301" height="15.3"/>
	</g>
	<g id="XMLID_289_">
		<rect x="122.4" y="237.205" style="fill:#1D1D1B;" width="15.301" height="15.3"/>
	</g>
	<g id="XMLID_108_">
		<rect x="53.55" y="68.905" style="fill:#FFFFFF;" width="15.301" height="15.3"/>
	</g>
	<g id="XMLID_109_">
		<rect x="137.699" y="122.455" style="fill:#FFFFFF;" width="15.301" height="15.3"/>
	</g>
	<g id="XMLID_110_">
		<rect x="428.4" y="53.605" style="fill:#FFFFFF;" width="15.301" height="15.3"/>
	</g>
	<g id="XMLID_111_">
		<rect x="451.35" y="153.055" style="fill:#FFFFFF;" width="15.301" height="15.3"/>
	</g>
	<g id="XMLID_112_">
		<rect x="283.05" y="183.655" style="fill:#FFFFFF;" width="15.301" height="15.3"/>
	</g>
</g>
</svg>